<?xml version="1.0" encoding="UTF-8" standalone="no"?>
<svg
   xmlns:dc="http://purl.org/dc/elements/1.1/"
   xmlns:cc="http://creativecommons.org/ns#"
   xmlns:rdf="http://www.w3.org/1999/02/22-rdf-syntax-ns#"
   xmlns:svg="http://www.w3.org/2000/svg"
   xmlns="http://www.w3.org/2000/svg"
   viewBox="0 0 1374.6667 1496"
   height="1496"
   width="1374.6667"
   xml:space="preserve"
   id="svg2"
   version="1.1"><metadata
     id="metadata8"><rdf:RDF><cc:Work
         rdf:about=""><dc:format>image/svg+xml</dc:format><dc:type
           rdf:resource="http://purl.org/dc/dcmitype/StillImage" /></cc:Work></rdf:RDF></metadata><defs
     id="defs6" /><g
     transform="matrix(1.3333333,0,0,-1.3333333,0,1496)"
     id="g10"><g
       transform="scale(0.1)"
       id="g12"><path
         id="path14"
         style="fill:#3b713a;fill-opacity:1;fill-rule:nonzero;stroke:none"
         d="m 435,10598 c 3128,-1 6257,0 9385,-1 36,0 71,-6 105,-12 -1,-462 -4,-923 -3,-1385 -5,-410 -1,-820 -2,-1230 0,-1807 0,-3613 0,-5420 11,-216 -10,-437 -91,-640 -135,-307 -393,-552 -694,-696 -189,-96 -406,-110 -615,-119 -273,-12 -547,1 -820,-2 -160,1 -320,-4 -480,-3 -290,1 -580,-5 -870,-8 -130,-7 -260,13 -390,6 -156,-5 -317,-27 -454,-105 -124,-84 -214,-208 -289,-336 -50,98 -118,188 -206,255 -141,106 -315,170 -491,180 -514,2 -1027,-2 -1540,6 -310,-5 -620,-10 -930,4 -154,-2 -310,-23 -461,12 -163,35 -328,79 -473,162 -169,117 -331,252 -440,428 -75,115 -145,236 -181,369 -29,104 -24,212 -40,318 -17,112 -21,225 -20,338 0,1107 0,2214 0,3321 -5,667 -1,1333 -2,2000 -1,697 0,1393 -1,2090 6,156 2,312 3,468 m 313,-314 c 0,-782 0,-1564 0,-2346 2959,0 5917,0 8876,0 0,782 0,1564 0,2346 -2959,0 -5917,0 -8876,0 m 346,-2717 c -8,-69 -2,-138 -4,-207 -3,-87 9,-173 -1,-260 -109,1 -219,-6 -329,-3 -4,-586 -1,-1171 0,-1757 7,-260 2,-520 3,-780 -1,-213 4,-427 -3,-640 -2,-477 5,-953 24,-1429 -2,-120 -5,-242 27,-359 31,-113 70,-231 152,-320 23,19 40,44 57,68 300,403 601,806 902,1210 96,133 199,261 289,398 45,88 109,164 168,243 107,142 209,290 329,422 35,38 64,81 95,123 791,1059 1579,2120 2370,3180 6,17 28,19 36,3 1397,-1879 2794,-3757 4190,-5636 42,34 63,85 86,132 73,153 108,325 97,495 6,343 11,687 10,1030 -5,860 1,1720 0,2580 6,156 -1,313 0,470 0,178 0,356 0,534 -135,6 -270,1 -405,3 0,166 -1,333 0,500 -530,-2 -1061,3 -1591,-5 -3,-165 -7,-330 -6,-495 -550,-1 -1100,0 -1650,-1 -13,167 8,334 -4,501 -542,-1 -1084,0 -1625,0 -7,-157 2,-314 -1,-470 -572,0 -1144,0 -1716,0 -1,155 3,311 -2,467 -500,5 -999,1 -1498,3 m 485,-5536 c -117,-156 -241,-307 -356,-466 62,-44 136,-66 197,-111 329,436 656,875 985,1312 924,1231 1848,2462 2772,3694 626,-835 1248,-1673 1873,-2509 504,-676 1009,-1351 1513,-2028 118,-166 246,-326 367,-491 43,16 84,39 119,69 25,21 70,38 62,78 -18,35 -45,63 -67,95 C 8548,2339 8055,3005 7560,3670 6766,4738 5972,5805 5178,6874 3978,5260 2781,3644 1579,2031 m 2893,2196 c -22,-100 -37,-204 -37,-307 -7,-408 140,-797 180,-1199 13,-149 18,-303 -17,-449 -69,-129 -112,-271 -135,-415 203,124 357,311 536,464 36,34 83,59 106,104 44,75 45,166 35,250 -118,-13 -192,-116 -268,-195 15,133 12,268 -5,401 -42,358 -165,706 -164,1070 6,129 44,265 139,356 57,57 141,80 220,67 34,-494 -7,-989 23,-1483 75,51 148,106 219,163 50,346 17,696 33,1044 71,6 142,6 213,6 -33,-194 -32,-393 -7,-588 24,-197 70,-391 113,-584 -53,-45 -102,-92 -157,-134 -19,31 -38,63 -58,94 -22,5 -43,9 -64,13 -37,-44 -73,-89 -107,-135 51,-96 75,-227 186,-271 154,151 353,254 482,431 -52,120 -95,244 -123,371 -88,395 -54,806 36,1197 -120,-10 -225,-80 -342,-103 -42,-4 -87,-9 -126,7 -51,78 -119,148 -208,181 -276,108 -626,-69 -703,-356" /><path
         id="path16"
         style="fill:none;stroke:#3b713a;stroke-width:0.9375;stroke-linecap:butt;stroke-linejoin:miter;stroke-miterlimit:10;stroke-dasharray:none;stroke-opacity:1"
         d="m 435,10598 c 3128,-1 6257,0 9385,-1 36,0 71,-6 105,-12 -1,-462 -4,-923 -3,-1385 -5,-410 -1,-820 -2,-1230 0,-1807 0,-3613 0,-5420 11,-216 -10,-437 -91,-640 -135,-307 -393,-552 -694,-696 -189,-96 -406,-110 -615,-119 -273,-12 -547,1 -820,-2 -160,1 -320,-4 -480,-3 -290,1 -580,-5 -870,-8 -130,-7 -260,13 -390,6 -156,-5 -317,-27 -454,-105 -124,-84 -214,-208 -289,-336 -50,98 -118,188 -206,255 -141,106 -315,170 -491,180 -514,2 -1027,-2 -1540,6 -310,-5 -620,-10 -930,4 -154,-2 -310,-23 -461,12 -163,35 -328,79 -473,162 -169,117 -331,252 -440,428 -75,115 -145,236 -181,369 -29,104 -24,212 -40,318 -17,112 -21,225 -20,338 0,1107 0,2214 0,3321 -5,667 -1,1333 -2,2000 -1,697 0,1393 -1,2090 6,156 2,312 3,468 m 313,-314 c 0,-782 0,-1564 0,-2346 2959,0 5917,0 8876,0 0,782 0,1564 0,2346 -2959,0 -5917,0 -8876,0 m 346,-2717 c -8,-69 -2,-138 -4,-207 -3,-87 9,-173 -1,-260 -109,1 -219,-6 -329,-3 -4,-586 -1,-1171 0,-1757 7,-260 2,-520 3,-780 -1,-213 4,-427 -3,-640 -2,-477 5,-953 24,-1429 -2,-120 -5,-242 27,-359 31,-113 70,-231 152,-320 23,19 40,44 57,68 300,403 601,806 902,1210 96,133 199,261 289,398 45,88 109,164 168,243 107,142 209,290 329,422 35,38 64,81 95,123 791,1059 1579,2120 2370,3180 6,17 28,19 36,3 1397,-1879 2794,-3757 4190,-5636 42,34 63,85 86,132 73,153 108,325 97,495 6,343 11,687 10,1030 -5,860 1,1720 0,2580 6,156 -1,313 0,470 0,178 0,356 0,534 -135,6 -270,1 -405,3 0,166 -1,333 0,500 -530,-2 -1061,3 -1591,-5 -3,-165 -7,-330 -6,-495 -550,-1 -1100,0 -1650,-1 -13,167 8,334 -4,501 -542,-1 -1084,0 -1625,0 -7,-157 2,-314 -1,-470 -572,0 -1144,0 -1716,0 -1,155 3,311 -2,467 -500,5 -999,1 -1498,3 m 485,-5536 c -117,-156 -241,-307 -356,-466 62,-44 136,-66 197,-111 329,436 656,875 985,1312 924,1231 1848,2462 2772,3694 626,-835 1248,-1673 1873,-2509 504,-676 1009,-1351 1513,-2028 118,-166 246,-326 367,-491 43,16 84,39 119,69 25,21 70,38 62,78 -18,35 -45,63 -67,95 C 8548,2339 8055,3005 7560,3670 6766,4738 5972,5805 5178,6874 3978,5260 2781,3644 1579,2031 m 2893,2196 c -22,-100 -37,-204 -37,-307 -7,-408 140,-797 180,-1199 13,-149 18,-303 -17,-449 -69,-129 -112,-271 -135,-415 203,124 357,311 536,464 36,34 83,59 106,104 44,75 45,166 35,250 -118,-13 -192,-116 -268,-195 15,133 12,268 -5,401 -42,358 -165,706 -164,1070 6,129 44,265 139,356 57,57 141,80 220,67 34,-494 -7,-989 23,-1483 75,51 148,106 219,163 50,346 17,696 33,1044 71,6 142,6 213,6 -33,-194 -32,-393 -7,-588 24,-197 70,-391 113,-584 -53,-45 -102,-92 -157,-134 -19,31 -38,63 -58,94 -22,5 -43,9 -64,13 -37,-44 -73,-89 -107,-135 51,-96 75,-227 186,-271 154,151 353,254 482,431 -52,120 -95,244 -123,371 -88,395 -54,806 36,1197 -120,-10 -225,-80 -342,-103 -42,-4 -87,-9 -126,7 -51,78 -119,148 -208,181 -276,108 -626,-69 -703,-356 z" /><path
         id="path18"
         style="fill:#ffffff;fill-opacity:1;fill-rule:nonzero;stroke:none"
         d="m 748,10284 c 2959,0 5917,0 8876,0 0,-782 0,-1564 0,-2346 -2959,0 -5917,0 -8876,0 0,782 0,1564 0,2346 m 3588,-809 c -1,-154 1,-310 2,-465 8,-137 4,-275 5,-412 305,-144 611,-285 918,-427 193,142 388,281 580,425 14,-14 28,-28 41,-43 21,23 41,46 61,69 -70,77 -148,145 -222,218 -154,-113 -310,-224 -463,-338 -121,60 -242,119 -361,184 2,271 -3,543 -3,814 137,90 269,190 412,269 46,-45 94,-89 141,-132 107,-99 211,-202 322,-297 85,82 172,163 261,242 -41,51 -97,88 -142,136 -27,-20 -46,-48 -73,-68 -167,158 -336,315 -505,471 -325,-215 -650,-430 -974,-646" /><path
         id="path20"
         style="fill:none;stroke:#ffffff;stroke-width:0.9375;stroke-linecap:butt;stroke-linejoin:miter;stroke-miterlimit:10;stroke-dasharray:none;stroke-opacity:1"
         d="m 748,10284 c 2959,0 5917,0 8876,0 0,-782 0,-1564 0,-2346 -2959,0 -5917,0 -8876,0 0,782 0,1564 0,2346 m 3588,-809 c -1,-154 1,-310 2,-465 8,-137 4,-275 5,-412 305,-144 611,-285 918,-427 193,142 388,281 580,425 14,-14 28,-28 41,-43 21,23 41,46 61,69 -70,77 -148,145 -222,218 -154,-113 -310,-224 -463,-338 -121,60 -242,119 -361,184 2,271 -3,543 -3,814 137,90 269,190 412,269 46,-45 94,-89 141,-132 107,-99 211,-202 322,-297 85,82 172,163 261,242 -41,51 -97,88 -142,136 -27,-20 -46,-48 -73,-68 -167,158 -336,315 -505,471 -325,-215 -650,-430 -974,-646 z" /><path
         id="path22"
         style="fill:#000000;fill-opacity:1;fill-rule:nonzero;stroke:none"
         d="m 4336,9475 c 324,216 649,431 974,646 169,-156 338,-313 505,-471 27,20 46,48 73,68 45,-48 101,-85 142,-136 -89,-79 -176,-160 -261,-242 -111,95 -215,198 -322,297 -47,43 -95,87 -141,132 -143,-79 -275,-179 -412,-269 0,-271 5,-543 3,-814 119,-65 240,-124 361,-184 153,114 309,225 463,338 74,-73 152,-141 222,-218 -20,-23 -40,-46 -61,-69 -13,15 -27,29 -41,43 -192,-144 -387,-283 -580,-425 -307,142 -613,283 -918,427 -1,137 3,275 -5,412 -1,155 -3,311 -2,465" /><path
         id="path24"
         style="fill:none;stroke:#000000;stroke-width:0.9375;stroke-linecap:butt;stroke-linejoin:miter;stroke-miterlimit:10;stroke-dasharray:none;stroke-opacity:1"
         d="m 4336,9475 c 324,216 649,431 974,646 169,-156 338,-313 505,-471 27,20 46,48 73,68 45,-48 101,-85 142,-136 -89,-79 -176,-160 -261,-242 -111,95 -215,198 -322,297 -47,43 -95,87 -141,132 -143,-79 -275,-179 -412,-269 0,-271 5,-543 3,-814 119,-65 240,-124 361,-184 153,114 309,225 463,338 74,-73 152,-141 222,-218 -20,-23 -40,-46 -61,-69 -13,15 -27,29 -41,43 -192,-144 -387,-283 -580,-425 -307,142 -613,283 -918,427 -1,137 3,275 -5,412 -1,155 -3,311 -2,465 z" /><path
         id="path26"
         style="fill:#ffffff;fill-opacity:1;fill-rule:nonzero;stroke:none"
         d="m 1094,7567 c 499,-2 998,2 1498,-3 5,-156 1,-312 2,-467 572,0 1144,0 1716,0 3,156 -6,313 1,470 541,0 1083,-1 1625,0 12,-167 -9,-334 4,-501 550,1 1100,0 1650,1 -1,165 3,330 6,495 530,8 1061,3 1591,5 -1,-167 0,-334 0,-500 135,-2 270,3 405,-3 0,-178 0,-356 0,-534 -1,-157 6,-314 0,-470 1,-860 -5,-1720 0,-2580 1,-343 -4,-687 -10,-1030 11,-170 -24,-342 -97,-495 -23,-47 -44,-98 -86,-132 -1396,1879 -2793,3757 -4190,5636 -8,16 -30,14 -36,-3 C 4382,6396 3594,5335 2803,4276 c -31,-42 -60,-85 -95,-123 -120,-132 -222,-280 -329,-422 -59,-79 -123,-155 -168,-243 -90,-137 -193,-265 -289,-398 -301,-404 -602,-807 -902,-1210 -17,-24 -34,-49 -57,-68 -82,89 -121,207 -152,320 -32,117 -29,239 -27,359 -19,476 -26,952 -24,1429 7,213 2,427 3,640 -1,260 4,520 -3,780 -1,586 -4,1171 0,1757 110,-3 220,4 329,3 10,87 -2,173 1,260 2,69 -4,138 4,207 m 980,-1022 c -46,-33 -94,-66 -125,-114 -48,-71 -67,-155 -89,-236 -154,12 -317,-26 -437,-127 -63,-56 -116,-132 -122,-218 -27,-154 -72,-314 -31,-470 50,-169 107,-335 167,-501 -136,-87 -271,-191 -349,-336 -56,-105 -57,-226 -52,-341 7,-44 22,-90 59,-117 50,-32 106,-56 164,-67 24,0 47,-1 71,0 78,22 151,66 207,125 101,108 136,256 169,395 8,-1 17,-3 26,-5 177,-71 322,-204 438,-354 136,177 329,298 471,469 -115,-62 -226,-132 -340,-197 -42,47 -74,100 -111,150 -33,43 -76,76 -115,114 -103,92 -217,176 -347,226 -14,7 -35,8 -39,27 -59,202 -117,409 -113,622 8,99 17,204 70,291 43,64 112,118 191,123 2,-78 -17,-155 -14,-234 -19,-233 2,-467 6,-701 7,-33 6,-68 4,-102 84,72 202,107 260,208 24,120 8,243 20,365 115,-9 231,-2 346,-5 52,105 126,202 148,320 -157,9 -316,-11 -472,10 1,92 -14,183 -4,275 7,46 -4,95 12,139 25,82 94,147 175,174 19,9 39,0 58,-5 50,-16 100,-50 118,-102 38,-118 37,-244 51,-367 94,55 181,120 272,179 -18,24 -25,54 -35,81 -36,94 -76,192 -156,257 -74,51 -157,87 -240,118 -108,31 -222,-9 -312,-69 m 5746,-715 c 75,-17 136,-68 183,-127 4,-45 23,-88 21,-134 -1,-41 0,-81 5,-122 25,-308 22,-618 33,-927 2,-166 15,-332 12,-499 58,0 117,3 175,-5 273,-13 545,7 818,-1 1,175 74,341 173,483 -79,-13 -152,-53 -214,-103 -81,-68 -149,-149 -216,-230 -87,3 -173,-14 -259,-5 -58,9 -117,4 -176,5 -1,105 3,210 2,315 -5,455 -49,907 -53,1361 62,50 126,97 188,146 0,-259 0,-518 0,-777 2,-101 5,-201 2,-302 70,97 135,198 203,296 7,12 18,21 18,35 12,310 -13,622 13,932 28,23 56,44 85,66 12,-31 15,-64 28,-95 39,-104 117,-189 200,-261 54,-41 147,-43 187,19 -35,38 -74,73 -98,119 -84,142 -93,312 -81,472 -77,37 -153,75 -229,114 -338,-261 -691,-502 -1020,-775" /><path
         id="path28"
         style="fill:none;stroke:#ffffff;stroke-width:0.9375;stroke-linecap:butt;stroke-linejoin:miter;stroke-miterlimit:10;stroke-dasharray:none;stroke-opacity:1"
         d="m 1094,7567 c 499,-2 998,2 1498,-3 5,-156 1,-312 2,-467 572,0 1144,0 1716,0 3,156 -6,313 1,470 541,0 1083,-1 1625,0 12,-167 -9,-334 4,-501 550,1 1100,0 1650,1 -1,165 3,330 6,495 530,8 1061,3 1591,5 -1,-167 0,-334 0,-500 135,-2 270,3 405,-3 0,-178 0,-356 0,-534 -1,-157 6,-314 0,-470 1,-860 -5,-1720 0,-2580 1,-343 -4,-687 -10,-1030 11,-170 -24,-342 -97,-495 -23,-47 -44,-98 -86,-132 -1396,1879 -2793,3757 -4190,5636 -8,16 -30,14 -36,-3 C 4382,6396 3594,5335 2803,4276 c -31,-42 -60,-85 -95,-123 -120,-132 -222,-280 -329,-422 -59,-79 -123,-155 -168,-243 -90,-137 -193,-265 -289,-398 -301,-404 -602,-807 -902,-1210 -17,-24 -34,-49 -57,-68 -82,89 -121,207 -152,320 -32,117 -29,239 -27,359 -19,476 -26,952 -24,1429 7,213 2,427 3,640 -1,260 4,520 -3,780 -1,586 -4,1171 0,1757 110,-3 220,4 329,3 10,87 -2,173 1,260 2,69 -4,138 4,207 m 980,-1022 c -46,-33 -94,-66 -125,-114 -48,-71 -67,-155 -89,-236 -154,12 -317,-26 -437,-127 -63,-56 -116,-132 -122,-218 -27,-154 -72,-314 -31,-470 50,-169 107,-335 167,-501 -136,-87 -271,-191 -349,-336 -56,-105 -57,-226 -52,-341 7,-44 22,-90 59,-117 50,-32 106,-56 164,-67 24,0 47,-1 71,0 78,22 151,66 207,125 101,108 136,256 169,395 8,-1 17,-3 26,-5 177,-71 322,-204 438,-354 136,177 329,298 471,469 -115,-62 -226,-132 -340,-197 -42,47 -74,100 -111,150 -33,43 -76,76 -115,114 -103,92 -217,176 -347,226 -14,7 -35,8 -39,27 -59,202 -117,409 -113,622 8,99 17,204 70,291 43,64 112,118 191,123 2,-78 -17,-155 -14,-234 -19,-233 2,-467 6,-701 7,-33 6,-68 4,-102 84,72 202,107 260,208 24,120 8,243 20,365 115,-9 231,-2 346,-5 52,105 126,202 148,320 -157,9 -316,-11 -472,10 1,92 -14,183 -4,275 7,46 -4,95 12,139 25,82 94,147 175,174 19,9 39,0 58,-5 50,-16 100,-50 118,-102 38,-118 37,-244 51,-367 94,55 181,120 272,179 -18,24 -25,54 -35,81 -36,94 -76,192 -156,257 -74,51 -157,87 -240,118 -108,31 -222,-9 -312,-69 m 5746,-715 c 75,-17 136,-68 183,-127 4,-45 23,-88 21,-134 -1,-41 0,-81 5,-122 25,-308 22,-618 33,-927 2,-166 15,-332 12,-499 58,0 117,3 175,-5 273,-13 545,7 818,-1 1,175 74,341 173,483 -79,-13 -152,-53 -214,-103 -81,-68 -149,-149 -216,-230 -87,3 -173,-14 -259,-5 -58,9 -117,4 -176,5 -1,105 3,210 2,315 -5,455 -49,907 -53,1361 62,50 126,97 188,146 0,-259 0,-518 0,-777 2,-101 5,-201 2,-302 70,97 135,198 203,296 7,12 18,21 18,35 12,310 -13,622 13,932 28,23 56,44 85,66 12,-31 15,-64 28,-95 39,-104 117,-189 200,-261 54,-41 147,-43 187,19 -35,38 -74,73 -98,119 -84,142 -93,312 -81,472 -77,37 -153,75 -229,114 -338,-261 -691,-502 -1020,-775 z" /><path
         id="path30"
         style="fill:#ffffff;fill-opacity:1;fill-rule:nonzero;stroke:none"
         d="m 1579,2031 c 1202,1613 2399,3229 3599,4843 794,-1069 1588,-2136 2382,-3204 495,-665 988,-1331 1484,-1996 22,-32 49,-60 67,-95 8,-40 -37,-57 -62,-78 -35,-30 -76,-53 -119,-69 -121,165 -249,325 -367,491 C 8059,2600 7554,3275 7050,3951 6425,4787 5803,5625 5177,6460 4253,5228 3329,3997 2405,2766 2076,2329 1749,1890 1420,1454 c -61,45 -135,67 -197,111 115,159 239,310 356,466" /><path
         id="path32"
         style="fill:none;stroke:#ffffff;stroke-width:0.9375;stroke-linecap:butt;stroke-linejoin:miter;stroke-miterlimit:10;stroke-dasharray:none;stroke-opacity:1"
         d="m 1579,2031 c 1202,1613 2399,3229 3599,4843 794,-1069 1588,-2136 2382,-3204 495,-665 988,-1331 1484,-1996 22,-32 49,-60 67,-95 8,-40 -37,-57 -62,-78 -35,-30 -76,-53 -119,-69 -121,165 -249,325 -367,491 C 8059,2600 7554,3275 7050,3951 6425,4787 5803,5625 5177,6460 4253,5228 3329,3997 2405,2766 2076,2329 1749,1890 1420,1454 c -61,45 -135,67 -197,111 115,159 239,310 356,466 z" /><path
         id="path34"
         style="fill:#000000;fill-opacity:1;fill-rule:nonzero;stroke:none"
         d="m 2074,6545 c 90,60 204,100 312,69 83,-31 166,-67 240,-118 80,-65 120,-163 156,-257 10,-27 17,-57 35,-81 -91,-59 -178,-124 -272,-179 -14,123 -13,249 -51,367 -18,52 -68,86 -118,102 -19,5 -39,14 -58,5 -81,-27 -150,-92 -175,-174 -16,-44 -5,-93 -12,-139 -10,-92 5,-183 4,-275 156,-21 315,-1 472,-10 -22,-118 -96,-215 -148,-320 -115,3 -231,-4 -346,5 -12,-122 4,-245 -20,-365 -58,-101 -176,-136 -260,-208 2,34 3,69 -4,102 -4,234 -25,468 -6,701 -3,79 16,156 14,234 -79,-5 -148,-59 -191,-123 -53,-87 -62,-192 -70,-291 -4,-213 54,-420 113,-622 4,-19 25,-20 39,-27 130,-50 244,-134 347,-226 39,-38 82,-71 115,-114 37,-50 69,-103 111,-150 114,65 225,135 340,197 -142,-171 -335,-292 -471,-469 -116,150 -261,283 -438,354 -9,2 -18,4 -26,5 -33,-139 -68,-287 -169,-395 -56,-59 -129,-103 -207,-125 -24,-1 -47,0 -71,0 -58,11 -114,35 -164,67 -37,27 -52,73 -59,117 -5,115 -4,236 52,341 78,145 213,249 349,336 -60,166 -117,332 -167,501 -41,156 4,316 31,470 6,86 59,162 122,218 120,101 283,139 437,127 22,81 41,165 89,236 31,48 79,81 125,114 M 1226,4280 c 9,-81 126,-113 179,-55 88,88 117,217 114,338 -20,6 -41,13 -62,8 -138,-16 -241,-156 -231,-291" /><path
         id="path36"
         style="fill:none;stroke:#000000;stroke-width:0.9375;stroke-linecap:butt;stroke-linejoin:miter;stroke-miterlimit:10;stroke-dasharray:none;stroke-opacity:1"
         d="m 2074,6545 c 90,60 204,100 312,69 83,-31 166,-67 240,-118 80,-65 120,-163 156,-257 10,-27 17,-57 35,-81 -91,-59 -178,-124 -272,-179 -14,123 -13,249 -51,367 -18,52 -68,86 -118,102 -19,5 -39,14 -58,5 -81,-27 -150,-92 -175,-174 -16,-44 -5,-93 -12,-139 -10,-92 5,-183 4,-275 156,-21 315,-1 472,-10 -22,-118 -96,-215 -148,-320 -115,3 -231,-4 -346,5 -12,-122 4,-245 -20,-365 -58,-101 -176,-136 -260,-208 2,34 3,69 -4,102 -4,234 -25,468 -6,701 -3,79 16,156 14,234 -79,-5 -148,-59 -191,-123 -53,-87 -62,-192 -70,-291 -4,-213 54,-420 113,-622 4,-19 25,-20 39,-27 130,-50 244,-134 347,-226 39,-38 82,-71 115,-114 37,-50 69,-103 111,-150 114,65 225,135 340,197 -142,-171 -335,-292 -471,-469 -116,150 -261,283 -438,354 -9,2 -18,4 -26,5 -33,-139 -68,-287 -169,-395 -56,-59 -129,-103 -207,-125 -24,-1 -47,0 -71,0 -58,11 -114,35 -164,67 -37,27 -52,73 -59,117 -5,115 -4,236 52,341 78,145 213,249 349,336 -60,166 -117,332 -167,501 -41,156 4,316 31,470 6,86 59,162 122,218 120,101 283,139 437,127 22,81 41,165 89,236 31,48 79,81 125,114 M 1226,4280 c 9,-81 126,-113 179,-55 88,88 117,217 114,338 -20,6 -41,13 -62,8 -138,-16 -241,-156 -231,-291 z" /><path
         id="path38"
         style="fill:#000000;fill-opacity:1;fill-rule:nonzero;stroke:none"
         d="m 7820,5830 c 329,273 682,514 1020,775 76,-39 152,-77 229,-114 -12,-160 -3,-330 81,-472 24,-46 63,-81 98,-119 -40,-62 -133,-60 -187,-19 -83,72 -161,157 -200,261 -13,31 -16,64 -28,95 -29,-22 -57,-43 -85,-66 -26,-310 -1,-622 -13,-932 0,-14 -11,-23 -18,-35 -68,-98 -133,-199 -203,-296 3,101 0,201 -2,302 0,259 0,518 0,777 -62,-49 -126,-96 -188,-146 4,-454 48,-906 53,-1361 1,-105 -3,-210 -2,-315 59,-1 118,4 176,-5 86,-9 172,8 259,5 67,81 135,162 216,230 62,50 135,90 214,103 -99,-142 -172,-308 -173,-483 -273,8 -545,-12 -818,1 -58,8 -117,5 -175,5 3,167 -10,333 -12,499 -11,309 -8,619 -33,927 -5,41 -6,81 -5,122 2,46 -17,89 -21,134 -47,59 -108,110 -183,127" /><path
         id="path40"
         style="fill:none;stroke:#000000;stroke-width:0.9375;stroke-linecap:butt;stroke-linejoin:miter;stroke-miterlimit:10;stroke-dasharray:none;stroke-opacity:1"
         d="m 7820,5830 c 329,273 682,514 1020,775 76,-39 152,-77 229,-114 -12,-160 -3,-330 81,-472 24,-46 63,-81 98,-119 -40,-62 -133,-60 -187,-19 -83,72 -161,157 -200,261 -13,31 -16,64 -28,95 -29,-22 -57,-43 -85,-66 -26,-310 -1,-622 -13,-932 0,-14 -11,-23 -18,-35 -68,-98 -133,-199 -203,-296 3,101 0,201 -2,302 0,259 0,518 0,777 -62,-49 -126,-96 -188,-146 4,-454 48,-906 53,-1361 1,-105 -3,-210 -2,-315 59,-1 118,4 176,-5 86,-9 172,8 259,5 67,81 135,162 216,230 62,50 135,90 214,103 -99,-142 -172,-308 -173,-483 -273,8 -545,-12 -818,1 -58,8 -117,5 -175,5 3,167 -10,333 -12,499 -11,309 -8,619 -33,927 -5,41 -6,81 -5,122 2,46 -17,89 -21,134 -47,59 -108,110 -183,127 z" /><path
         id="path42"
         style="fill:#000000;fill-opacity:1;fill-rule:nonzero;stroke:none"
         d="m 4472,4227 c 77,287 427,464 703,356 89,-33 157,-103 208,-181 39,-16 84,-11 126,-7 117,23 222,93 342,103 -90,-391 -124,-802 -36,-1197 28,-127 71,-251 123,-371 -129,-177 -328,-280 -482,-431 -111,44 -135,175 -186,271 34,46 70,91 107,135 21,-4 42,-8 64,-13 20,-31 39,-63 58,-94 55,42 104,89 157,134 -43,193 -89,387 -113,584 -25,195 -26,394 7,588 -71,0 -142,0 -213,-6 -16,-348 17,-698 -33,-1044 -71,-57 -144,-112 -219,-163 -30,494 11,989 -23,1483 -79,13 -163,-10 -220,-67 -95,-91 -133,-227 -139,-356 -1,-364 122,-712 164,-1070 17,-133 20,-268 5,-401 76,79 150,182 268,195 10,-84 9,-175 -35,-250 -23,-45 -70,-70 -106,-104 -179,-153 -333,-340 -536,-464 23,144 66,286 135,415 35,146 30,300 17,449 -40,402 -187,791 -180,1199 0,103 15,207 37,307" /><path
         id="path44"
         style="fill:none;stroke:#000000;stroke-width:0.9375;stroke-linecap:butt;stroke-linejoin:miter;stroke-miterlimit:10;stroke-dasharray:none;stroke-opacity:1"
         d="m 4472,4227 c 77,287 427,464 703,356 89,-33 157,-103 208,-181 39,-16 84,-11 126,-7 117,23 222,93 342,103 -90,-391 -124,-802 -36,-1197 28,-127 71,-251 123,-371 -129,-177 -328,-280 -482,-431 -111,44 -135,175 -186,271 34,46 70,91 107,135 21,-4 42,-8 64,-13 20,-31 39,-63 58,-94 55,42 104,89 157,134 -43,193 -89,387 -113,584 -25,195 -26,394 7,588 -71,0 -142,0 -213,-6 -16,-348 17,-698 -33,-1044 -71,-57 -144,-112 -219,-163 -30,494 11,989 -23,1483 -79,13 -163,-10 -220,-67 -95,-91 -133,-227 -139,-356 -1,-364 122,-712 164,-1070 17,-133 20,-268 5,-401 76,79 150,182 268,195 10,-84 9,-175 -35,-250 -23,-45 -70,-70 -106,-104 -179,-153 -333,-340 -536,-464 23,144 66,286 135,415 35,146 30,300 17,449 -40,402 -187,791 -180,1199 0,103 15,207 37,307 z" /><path
         id="path46"
         style="fill:#ffffff;fill-opacity:1;fill-rule:nonzero;stroke:none"
         d="m 1226,4280 c -10,135 93,275 231,291 21,5 42,-2 62,-8 3,-121 -26,-250 -114,-338 -53,-58 -170,-26 -179,55" /><path
         id="path48"
         style="fill:none;stroke:#ffffff;stroke-width:0.9375;stroke-linecap:butt;stroke-linejoin:miter;stroke-miterlimit:10;stroke-dasharray:none;stroke-opacity:1"
         d="m 1226,4280 c -10,135 93,275 231,291 21,5 42,-2 62,-8 3,-121 -26,-250 -114,-338 -53,-58 -170,-26 -179,55 z" /></g></g></svg>